<svg xmlns="http://www.w3.org/2000/svg" viewBox="0 0 72 72"><path fill="#a57939" d="M19 25.5c-.8.3-8.6 9.3-9.3 15s-.4 8.2-.4 8.2 2.9 8.7 11.2 13c0 0 13 13.2 30 .3 0 0 8.4-2.8 12-14.6l-.2-9.6-2.5-6.2s-4.5-4.3-4.6-4.8l-5.4-4-2-.5-23.9.4z"/><path fill="#f4aa41" d="m60 21.2.3-5.7-1-4-5.7-.7-5.3 2.5-3 2.7-3.3-5.4-6-2.8-10 2-1.2.3s-2.3 1.7-2.2 2.5c0 0-6.8-3-9.6-.4 0 0-3.8 6.9.3 11.4l4 3.5s-9.5 8.6 1.3 19.5c0 0-2.6 5.6 1.1 11.9l3.2 6.7c6 5.3 19.4 5 25.4-.3l2.4-4.8c.9-1 4.6-6 3.6-11.8 0 0 8.5-8 1.7-20.7L54.3 26l3-1.6z"/><path fill="#a57939" d="M22.3 12.4s1-2 4-3S32 7.7 32 7.7l7 1c.5 0 6 6.3 6 6.3l.4 2.5s-1.8 1.8-6.6-.6-5.8-2.4-6-2.3c-.1.2-5.6 2.4-5.6 2.4l-2-1.7z"/><path fill="#fff" d="m47.7 42.3 1.5-8.6H49s-2.7 4.8-5.6 5.6l-.5 1.6v1.5q-1 0-1.6.2c-1.2.8-2.4.5-2.4.5l-1.8 1.7-.6 1-1.7-.7s-.6-2-.8-2l-2.1-.8-1.2.5s-1-.3-2-.1l.1-1.8-.5-1.6c-3-.8-5.6-5.6-5.6-5.6h-.2l1.5 8.6 2.5 2.6a8 8 0 0 0 .2 4.6l2.3 2.8 5.2-.7 2-1.6 1.8 1 3.9 1.5 2.5-1.4 1.8-4.6-.6-2c.8-.8 2-2 2-2.2"/><path fill="#f4aa41" d="M27 18s.5 3-2.2 5.8l-4.6 1c-.2.2-2.3 1.4-2.7 1.5-.3.2-1.7-.3-2-.5S12 20.3 12 20.3l.2-3.6 1-4.4 4.7-.6 4 1 3.9 3zm18-.7s-.4 2.8 2.3 5.7l4.6 1 2.6 1.5c.3.2 1.7-.3 2-.5s3.5-5.5 3.5-5.5l-.1-3.7-1-4.3-4.7-.6-4 1-3.9 3z"/><path fill="#fff" d="m27.7 51.3 2 4.5 2.6 1.6 5.7.4 4.4-1.5 2.4-5.3-2.9 1.5-4.4-1.5-1.5-1.3-3 1.6s0 1.4-1.8 1z"/><circle cx="28.8" cy="31.6" r="2" transform="rotate(-59 28.8 31.6)"/><circle cx="43.5" cy="31.6" r="2" transform="rotate(-31 43.5 31.6)"/><path fill="none" stroke="#000" stroke-linecap="round" stroke-linejoin="round" stroke-miterlimit="10" stroke-width="2" d="M40.4 43s-1.9-1.3-3 2.1L36 46.2l-1.4-1c-1-3.5-3-2.1-3-2.1"/><path fill="none" stroke="#000" stroke-linecap="round" stroke-linejoin="round" stroke-miterlimit="10" stroke-width="2" d="m43 40 2 3.5q.4.5.5 1l.3 2.1q0 .9-.2 1.6l-1.2 2.4q-.6 1.4-2.3 1.7-1 .2-1.9-.1l-1.3-.6q-.5-.1-.9-.5L36.7 50h-1.3L34 51l-.8.5-1.3.6q-1 .4-2 .1-1.6-.3-2.3-1.7l-1.1-2.4q-.3-.7-.2-1.6l.3-2q0-.6.4-1.1l2-3.4m7 6.2V49m-5.5 6.5.8.8q1.3 1.4 3.2 1.4l3 .2q1.8 0 3.2-1.1l.8-.7M17.7 26.8c-10-4-4.8-14.2-4.8-14.2 7.6-4.5 13.9 4.8 13.9 4.8S31.7 12.8 39 16"/><path fill="none" stroke="#000" stroke-linecap="round" stroke-linejoin="round" stroke-miterlimit="10" stroke-width="2" d="M24 23.1s-17.3 6.1-13.7 25m9.2-2.9c-2.6 3.7-3.6 10 4.4 19.4m.1-36.9s-5.6 8.4 2.2 17.8M25.4 11S38 1.3 45.2 16.2m0 .3s6.3-9.3 13.9-4.8c0 0 5.2 10.2-4.8 14.2"/><path fill="none" stroke="#000" stroke-linecap="round" stroke-linejoin="round" stroke-miterlimit="10" stroke-width="2" d="M48 22.2s17.3 6.1 13.7 25m-8.1-1c1.6 3.9 1.3 9.6-5.5 17.5M48 26.8s5.6 8.4-2.2 17.8"/></svg>