<svg xmlns="http://www.w3.org/2000/svg" viewBox="0 0 72 72"><path fill="#a57939" d="M61.5 37q-.7-1-2.7-2c-1.5-1.9-.3-2.8-2-4.9-4.3-4.8-26.4-1-26.4-1-4.6-5.7-5.2-8.3-11-17.5 0 0-.2 1.5-1.4 2.2s-3.4.8-3.7 1.1c-.7.8-1.6 2.2-3 3-.7.6.4 2.3.5 3 .2 1.7 2.6-.6 3.8.4 3.6 3.2 4 15.2 6.7 19.1q2 2.4 5 3.4c1.9 7 3.8 7.3 2.7 15.9.5.1 1.3.9 1.7.7s1.2-.1 1.5-1l.8-1.7c.2-.6.1-1.7.1-1.7l.7-6.2-.2-3.8a55 55 0 0 0 14.9-2c1.3-.7 1-.9 1.5.7 1.1 3.1 3.6 5.7 4.1 7 1.8 4.5.6 4.6.4 6.8 0 0 0 2.3 1.6 2a10 10 0 0 0 2.3-4.4c.3-1.5.4-4.2-.3-6.4-.8-1 0-6.3-.4-9.5l-.3-2.4c1.8 2.2 3.5 1.4 3.1-.8"/><path fill="#6a462f" d="M24.8 42.7c2 .2 3.8 1.7 3.8 4.8 0 0-4.1 2.1-4.5 2.9s1 6 1 6l-1.2 2c-.8 1.7-2.6 1.2-2.6 1.2L20.5 48c1.3-2 4.3-5.3 4.3-5.3m23.6 1.8s2.6-1.7 3.1-1 1 6 1.4 8.6-3.7 6.3-4.5 7.2q-.7.9-1.8.8c-.5 0-1.3 1-1.8.3-.4-.5-.4-2.3-.7-2.4l4.9-5z"/><g fill="none" stroke="#000" stroke-linecap="round" stroke-linejoin="round" stroke-width="2"><path d="m60.7 37.4-2-2.3c-.8-8.9-18.4-7.8-28.3-6-2.3.4-6.4-9.3-8.2-13.7-.3-.7-1.3-3.8-2.6-3.8-1.2 0-1 1.7-1.6 2.2-.4.5-2.7.7-3.7 1-.4.1 0 1.6-.3 1.7-1.3.4-2.7.8-2.7 1.7 0 .7.1 2.7.8 2.9 1.6.3 2.7-.5 3.5.3 3.6 3.2 4 15.1 6.7 19q2 2.4 5 3.5l2.4 5.1c1 2.7 1 5.6 1 8.4l-.5 1c-.4 1 .4 2 1.5 2q1.1 0 1.5-1l.7-1.7a3 3 0 0 0 .2-1.7l-.2-6"/><path d="M33 45.2c3.6 1.8 13.7 0 18.2-1.4.5 5.8 2 5.8 4 7.8l.8 5.8-.4 1c-.5 1 .3 2 1.5 2q1 0 1.5-1l.7-1.7a3 3 0 0 0 .2-1.8l-1.3-6"/><path d="M49 44.7c-1 3.3-1 3.4-1 4.3s.3 1.3.7 2.7C49 53 46 56 45 57.1l-.8.8c-.7.7-.4 2 .7 2.3q1 .4 1.8-.3l1.2-1.3M24.8 42.7c-1.4 2.2-3.5 4.5-4.3 6.3-.3.8.7 9 .7 9l.1 1.2c.1 1 1.3 1.5 2.3 1q1-.6.8-1.7l-.2-1.8"/></g></svg>